<mxfile host="app.diagrams.net" agent="Mozilla/5.0 (X11; Linux x86_64) AppleWebKit/537.36 (KHTML, like Gecko) Chrome/130.0.0.0 Safari/537.36" version="28.1.1">
  <diagram name="Page-1" id="gD_oswIPVhmendxxoWTu">
    <mxGraphModel dx="2064" dy="1238" grid="1" gridSize="10" guides="1" tooltips="1" connect="1" arrows="1" fold="1" page="1" pageScale="1" pageWidth="4681" pageHeight="3300" math="0" shadow="0">
      <root>
        <mxCell id="0" />
        <mxCell id="1" parent="0" />
        <mxCell id="1KNnokjcpxOvImdohz6O-1" value="UK import data, Jan - Jun 2025" style="swimlane;fontStyle=0;childLayout=stackLayout;horizontal=1;startSize=26;strokeColor=#DAEEF3;strokeWidth=3;fillColor=none;horizontalStack=0;resizeParent=1;resizeParentMax=0;resizeLast=0;collapsible=1;marginBottom=0;whiteSpace=wrap;html=1;" parent="1" vertex="1">
          <mxGeometry x="250" y="187.5" width="210" height="52" as="geometry" />
        </mxCell>
        <mxCell id="1KNnokjcpxOvImdohz6O-7" value="Record" style="text;strokeColor=#DAEEF3;strokeWidth=3;fillColor=none;align=center;verticalAlign=top;spacingLeft=4;spacingRight=4;overflow=hidden;rotatable=0;points=[[0,0.5],[1,0.5]];portConstraint=eastwest;whiteSpace=wrap;html=1;" parent="1KNnokjcpxOvImdohz6O-1" vertex="1">
          <mxGeometry y="26" width="210" height="26" as="geometry" />
        </mxCell>
        <mxCell id="GSmQbqhHfHepy2YTWG1f-1" value="" style="endArrow=classic;html=1;rounded=0;exitX=1;exitY=0;exitDx=0;exitDy=0;exitPerimeter=0;" edge="1" parent="1" source="1KNnokjcpxOvImdohz6O-7" target="GSmQbqhHfHepy2YTWG1f-3">
          <mxGeometry relative="1" as="geometry">
            <mxPoint x="500" y="206" as="sourcePoint" />
            <mxPoint x="690" y="206" as="targetPoint" />
          </mxGeometry>
        </mxCell>
        <mxCell id="GSmQbqhHfHepy2YTWG1f-2" value="has or had instantiation" style="edgeLabel;resizable=0;html=1;;align=center;verticalAlign=middle;" connectable="0" vertex="1" parent="GSmQbqhHfHepy2YTWG1f-1">
          <mxGeometry relative="1" as="geometry" />
        </mxCell>
        <mxCell id="GSmQbqhHfHepy2YTWG1f-3" value="Text file in custom format of UK import data, Jan - Jun 2025" style="swimlane;fontStyle=0;childLayout=stackLayout;horizontal=1;startSize=41;strokeColor=#F5DEB3;strokeWidth=2;fillColor=none;horizontalStack=0;resizeParent=1;resizeParentMax=0;resizeLast=0;collapsible=1;marginBottom=0;whiteSpace=wrap;html=1;" vertex="1" parent="1">
          <mxGeometry x="660" y="180" width="250" height="67" as="geometry" />
        </mxCell>
        <mxCell id="GSmQbqhHfHepy2YTWG1f-4" value="Instantiation&lt;div&gt;&lt;br&gt;&lt;/div&gt;" style="text;strokeColor=#F5DEB3;strokeWidth=2;fillColor=#F5DEB3;align=center;verticalAlign=top;spacingLeft=4;spacingRight=4;overflow=hidden;rotatable=0;points=[[0,0.5],[1,0.5]];portConstraint=eastwest;whiteSpace=wrap;html=1;" vertex="1" parent="GSmQbqhHfHepy2YTWG1f-3">
          <mxGeometry y="41" width="250" height="26" as="geometry" />
        </mxCell>
        <mxCell id="GSmQbqhHfHepy2YTWG1f-6" value="" style="endArrow=classic;html=1;rounded=0;exitX=0.5;exitY=1;exitDx=0;exitDy=0;" edge="1" parent="1" source="GSmQbqhHfHepy2YTWG1f-3" target="GSmQbqhHfHepy2YTWG1f-8">
          <mxGeometry relative="1" as="geometry">
            <mxPoint x="700" y="421" as="sourcePoint" />
            <mxPoint x="785" y="421" as="targetPoint" />
          </mxGeometry>
        </mxCell>
        <mxCell id="GSmQbqhHfHepy2YTWG1f-7" value="has or had derived instantiation" style="edgeLabel;resizable=0;html=1;;align=center;verticalAlign=middle;" connectable="0" vertex="1" parent="GSmQbqhHfHepy2YTWG1f-6">
          <mxGeometry relative="1" as="geometry" />
        </mxCell>
        <mxCell id="GSmQbqhHfHepy2YTWG1f-8" value="Spreadsheet of UK import data, Jan - Jun 2025" style="swimlane;fontStyle=0;childLayout=stackLayout;horizontal=1;startSize=40;strokeColor=#F5DEB3;strokeWidth=2;fillColor=none;horizontalStack=0;resizeParent=1;resizeParentMax=0;resizeLast=0;collapsible=1;marginBottom=0;whiteSpace=wrap;html=1;" vertex="1" parent="1">
          <mxGeometry x="667.63" y="391" width="234.75" height="66" as="geometry" />
        </mxCell>
        <mxCell id="GSmQbqhHfHepy2YTWG1f-9" value="Instantiation&lt;div&gt;&lt;br&gt;&lt;/div&gt;" style="text;strokeColor=#F5DEB3;strokeWidth=2;fillColor=#F5DEB3;align=center;verticalAlign=top;spacingLeft=4;spacingRight=4;overflow=hidden;rotatable=0;points=[[0,0.5],[1,0.5]];portConstraint=eastwest;whiteSpace=wrap;html=1;" vertex="1" parent="GSmQbqhHfHepy2YTWG1f-8">
          <mxGeometry y="40" width="234.75" height="26" as="geometry" />
        </mxCell>
        <mxCell id="GSmQbqhHfHepy2YTWG1f-10" value="Programmatic parsing of import data custom format" style="swimlane;fontStyle=0;childLayout=stackLayout;horizontal=1;startSize=40;strokeColor=#FFFAA0;strokeWidth=3;fillColor=none;horizontalStack=0;resizeParent=1;resizeParentMax=0;resizeLast=0;collapsible=1;marginBottom=0;whiteSpace=wrap;html=1;" vertex="1" parent="1">
          <mxGeometry x="1130" y="280" width="240" height="66" as="geometry" />
        </mxCell>
        <mxCell id="GSmQbqhHfHepy2YTWG1f-11" value="Activity" style="text;strokeColor=#FFFAA0;strokeWidth=3;fillColor=none;align=center;verticalAlign=top;spacingLeft=4;spacingRight=4;overflow=hidden;rotatable=0;points=[[0,0.5],[1,0.5]];portConstraint=eastwest;whiteSpace=wrap;html=1;" vertex="1" parent="GSmQbqhHfHepy2YTWG1f-10">
          <mxGeometry y="40" width="240" height="26" as="geometry" />
        </mxCell>
        <mxCell id="GSmQbqhHfHepy2YTWG1f-12" value="" style="endArrow=classic;html=1;rounded=0;exitX=0;exitY=0.5;exitDx=0;exitDy=0;entryX=1;entryY=0.5;entryDx=0;entryDy=0;" edge="1" parent="1" source="GSmQbqhHfHepy2YTWG1f-11" target="GSmQbqhHfHepy2YTWG1f-8">
          <mxGeometry relative="1" as="geometry">
            <mxPoint x="730" y="520.0000000000002" as="sourcePoint" />
            <mxPoint x="900" y="520" as="targetPoint" />
          </mxGeometry>
        </mxCell>
        <mxCell id="GSmQbqhHfHepy2YTWG1f-13" value="results or resulted in" style="edgeLabel;resizable=0;html=1;;align=center;verticalAlign=middle;" connectable="0" vertex="1" parent="GSmQbqhHfHepy2YTWG1f-12">
          <mxGeometry relative="1" as="geometry" />
        </mxCell>
        <mxCell id="GSmQbqhHfHepy2YTWG1f-14" value="" style="endArrow=classic;html=1;rounded=0;exitX=-0.017;exitY=0.167;exitDx=0;exitDy=0;entryX=1;entryY=0.5;entryDx=0;entryDy=0;exitPerimeter=0;" edge="1" parent="1" source="GSmQbqhHfHepy2YTWG1f-10" target="GSmQbqhHfHepy2YTWG1f-3">
          <mxGeometry relative="1" as="geometry">
            <mxPoint x="1120" y="221" as="sourcePoint" />
            <mxPoint x="930" y="221" as="targetPoint" />
          </mxGeometry>
        </mxCell>
        <mxCell id="GSmQbqhHfHepy2YTWG1f-15" value="affects or affected" style="edgeLabel;resizable=0;html=1;;align=center;verticalAlign=middle;" connectable="0" vertex="1" parent="GSmQbqhHfHepy2YTWG1f-14">
          <mxGeometry relative="1" as="geometry" />
        </mxCell>
        <mxCell id="GSmQbqhHfHepy2YTWG1f-16" value="" style="endArrow=classic;html=1;rounded=0;entryX=0.5;entryY=0;entryDx=0;entryDy=0;exitX=0.014;exitY=1.135;exitDx=0;exitDy=0;exitPerimeter=0;" edge="1" parent="1" source="1KNnokjcpxOvImdohz6O-7" target="GSmQbqhHfHepy2YTWG1f-18">
          <mxGeometry relative="1" as="geometry">
            <mxPoint x="345" y="240" as="sourcePoint" />
            <mxPoint x="350" y="390" as="targetPoint" />
          </mxGeometry>
        </mxCell>
        <mxCell id="GSmQbqhHfHepy2YTWG1f-17" value="content type" style="edgeLabel;resizable=0;html=1;;align=center;verticalAlign=middle;" connectable="0" vertex="1" parent="GSmQbqhHfHepy2YTWG1f-16">
          <mxGeometry relative="1" as="geometry" />
        </mxCell>
        <mxCell id="GSmQbqhHfHepy2YTWG1f-18" value="Tabular data" style="html=1;whiteSpace=wrap;rounded=1;arcSize=50;" vertex="1" parent="1">
          <mxGeometry x="120" y="320" width="110" height="50" as="geometry" />
        </mxCell>
        <mxCell id="GSmQbqhHfHepy2YTWG1f-19" value="" style="endArrow=classic;html=1;rounded=0;entryX=0.945;entryY=0.08;entryDx=0;entryDy=0;entryPerimeter=0;" edge="1" parent="1" target="GSmQbqhHfHepy2YTWG1f-21">
          <mxGeometry relative="1" as="geometry">
            <mxPoint x="660" y="240" as="sourcePoint" />
            <mxPoint x="490" y="340" as="targetPoint" />
          </mxGeometry>
        </mxCell>
        <mxCell id="GSmQbqhHfHepy2YTWG1f-20" value="representation type" style="edgeLabel;resizable=0;html=1;;align=center;verticalAlign=middle;" connectable="0" vertex="1" parent="GSmQbqhHfHepy2YTWG1f-19">
          <mxGeometry relative="1" as="geometry" />
        </mxCell>
        <mxCell id="GSmQbqhHfHepy2YTWG1f-21" value="Encoded digital" style="html=1;whiteSpace=wrap;rounded=1;arcSize=50;" vertex="1" parent="1">
          <mxGeometry x="370" y="320" width="110" height="50" as="geometry" />
        </mxCell>
        <mxCell id="GSmQbqhHfHepy2YTWG1f-22" value="" style="endArrow=classic;html=1;rounded=0;exitX=0;exitY=0.5;exitDx=0;exitDy=0;entryX=0.936;entryY=0.9;entryDx=0;entryDy=0;entryPerimeter=0;" edge="1" parent="1" source="GSmQbqhHfHepy2YTWG1f-8" target="GSmQbqhHfHepy2YTWG1f-21">
          <mxGeometry relative="1" as="geometry">
            <mxPoint x="614" y="390" as="sourcePoint" />
            <mxPoint x="450" y="491" as="targetPoint" />
          </mxGeometry>
        </mxCell>
        <mxCell id="GSmQbqhHfHepy2YTWG1f-23" value="representation type" style="edgeLabel;resizable=0;html=1;;align=center;verticalAlign=middle;" connectable="0" vertex="1" parent="GSmQbqhHfHepy2YTWG1f-22">
          <mxGeometry relative="1" as="geometry" />
        </mxCell>
      </root>
    </mxGraphModel>
  </diagram>
</mxfile>
